<?xml version="1.0" encoding="iso-8859-1"?>
<!-- Generator: Adobe Illustrator 16.0.0, SVG Export Plug-In . SVG Version: 6.00 Build 0)  -->
<!DOCTYPE svg PUBLIC "-//W3C//DTD SVG 1.1//EN" "http://www.w3.org/Graphics/SVG/1.1/DTD/svg11.dtd">
<svg version="1.1" id="Capa_1" xmlns="http://www.w3.org/2000/svg" xmlns:xlink="http://www.w3.org/1999/xlink" x="0px" y="0px"
	 width="55.844px" height="55.844px" viewBox="0 0 55.844 55.844" style="enable-background:new 0 0 55.844 55.844;"
	 xml:space="preserve">
<g>
	<g>
		<path d="M51.954,26.156c-0.052-0.374-0.285-0.696-0.623-0.86c-0.341-0.165-0.735-0.15-1.063,0.038l-7.326,4.254
			c-0.045,0.024-0.084,0.053-0.125,0.084l-1.131,0.651c-0.353,0.203-0.564,0.576-0.566,0.98c0,0.404,0.216,0.775,0.564,0.979
			l6.383,3.709c0.178,0.104,0.373,0.152,0.568,0.152c0.35,0,0.69-0.162,0.912-0.465c1.635-2.229,2.534-4.973,2.534-7.724
			C52.081,27.361,52.038,26.755,51.954,26.156z"/>
		<path d="M31.069,19.488l7.271,4.181c0.039,0.021,0.077,0.041,0.116,0.059l1.188,0.688c0.177,0.102,0.369,0.15,0.564,0.15
			c0.194,0,0.391-0.051,0.565-0.15c0.351-0.202,0.563-0.575,0.563-0.979v-7.389c0-0.578-0.438-1.063-1.013-1.125
			c-3.338-0.356-6.728,0.629-9.394,2.692c-0.299,0.23-0.461,0.597-0.437,0.974C30.53,18.962,30.741,19.3,31.069,19.488z"/>
		<path d="M42.944,27.733c0.174,0.102,0.366,0.149,0.563,0.149c0.195,0,0.393-0.051,0.564-0.151l6.387-3.708
			c0.502-0.291,0.701-0.913,0.463-1.441c-1.383-3.076-3.861-5.478-6.984-6.756c-0.352-0.143-0.744-0.104-1.062,0.107
			c-0.311,0.21-0.5,0.563-0.5,0.939v9.879C42.376,27.158,42.592,27.532,42.944,27.733z"/>
		<path d="M46.825,36.467l-8.528-4.955c-0.351-0.203-0.779-0.205-1.134-0.002c-0.353,0.2-0.565,0.575-0.565,0.979v7.383
			c0,0.576,0.438,1.062,1.013,1.125c0.457,0.047,0.914,0.069,1.36,0.069c2.852,0,5.683-0.967,7.977-2.725
			c0.301-0.229,0.467-0.595,0.439-0.974C47.36,36.995,47.151,36.655,46.825,36.467z"/>
		<path d="M36.208,23.635l-6.375-3.665c-0.502-0.287-1.142-0.151-1.479,0.315c-1.608,2.222-2.496,4.945-2.496,7.671
			c0,0.561,0.037,1.124,0.105,1.674c0.051,0.375,0.278,0.701,0.616,0.869c0.158,0.08,0.332,0.117,0.507,0.117
			c0.192,0,0.387-0.05,0.561-0.146l8.558-4.872c0.354-0.2,0.569-0.574,0.571-0.979C36.774,24.213,36.559,23.838,36.208,23.635z"/>
		<path d="M34.999,28.124c-0.351-0.203-0.776-0.206-1.129-0.008l-6.438,3.666c-0.502,0.287-0.707,0.905-0.477,1.438
			c1.373,3.137,3.875,5.576,7.047,6.871c0.139,0.057,0.283,0.084,0.428,0.084c0.225,0,0.441-0.064,0.633-0.191
			c0.312-0.211,0.5-0.562,0.5-0.938v-9.941C35.561,28.696,35.346,28.323,34.999,28.124z"/>
		<path d="M38.969,11.083c-9.307,0-16.875,7.569-16.875,16.875c0,9.304,7.568,16.875,16.875,16.875
			c9.306,0,16.875-7.57,16.875-16.875C55.844,18.652,48.274,11.083,38.969,11.083z M38.969,42.569
			c-8.059,0-14.613-6.557-14.613-14.613c0-8.057,6.555-14.611,14.613-14.611S53.58,19.902,53.58,27.957
			C53.581,36.014,47.026,42.569,38.969,42.569z"/>
		<path d="M15.938,17.951c0.002-0.146-0.078-0.283-0.203-0.358l-3.151-1.842c-0.107-0.063-0.238-0.074-0.355-0.029
			C8.578,17.118,5.68,20.176,4.483,23.9c-0.051,0.161,0,0.34,0.134,0.445c0.075,0.062,0.168,0.093,0.26,0.093
			c0.07,0,0.143-0.018,0.205-0.055l10.652-6.076C15.86,18.233,15.938,18.097,15.938,17.951z"/>
		<path d="M16.878,40.903c0.934,0,1.867-0.102,2.772-0.297c0.166-0.035,0.295-0.172,0.32-0.34c0.027-0.168-0.055-0.336-0.199-0.422
			L9.216,33.698c-0.131-0.074-0.287-0.074-0.414-0.002c-0.129,0.072-0.209,0.211-0.209,0.357v3.68c0,0.125,0.06,0.242,0.154,0.32
			C11.045,39.891,13.932,40.903,16.878,40.903z"/>
		<path d="M7.399,23.724l-3.178,1.813c-0.109,0.062-0.184,0.17-0.203,0.295c-0.106,0.674-0.16,1.363-0.16,2.053
			c0,3.278,1.224,6.41,3.441,8.817c0.078,0.088,0.189,0.136,0.305,0.136c0.049,0,0.101-0.013,0.15-0.029
			c0.156-0.062,0.262-0.215,0.262-0.385V24.084c0-0.146-0.08-0.283-0.205-0.355C7.684,23.653,7.526,23.652,7.399,23.724z"/>
		<path d="M16.878,14.865c-0.926,0-1.848,0.099-2.742,0.29c-0.166,0.036-0.295,0.171-0.322,0.339
			c-0.024,0.169,0.053,0.337,0.199,0.422l7.527,4.398c0.559-1.268,1.258-2.455,2.065-3.562
			C21.585,15.534,19.251,14.865,16.878,14.865z"/>
		<path d="M21.407,40.064c0.052,0,0.103-0.01,0.148-0.024c0.689-0.267,1.342-0.607,1.971-0.984
			c-0.805-1.117-1.502-2.314-2.053-3.592l-3.441,1.986c-0.127,0.073-0.207,0.209-0.207,0.354s0.08,0.283,0.205,0.356l3.17,1.847
			C21.264,40.047,21.335,40.064,21.407,40.064z"/>
		<path d="M24.514,40.317c-2.227,1.373-4.836,2.18-7.639,2.18c-8.06,0-14.611-6.557-14.611-14.612
			c0-8.058,6.555-14.611,14.611-14.611c2.838,0,5.479,0.824,7.723,2.229c0.508-0.585,1.053-1.136,1.629-1.654
			c-2.68-1.79-5.895-2.838-9.352-2.838C7.569,11.011,0,18.581,0,27.886c0,9.305,7.569,16.875,16.875,16.875
			c3.416,0,6.596-1.027,9.256-2.781C25.561,41.456,25.018,40.905,24.514,40.317z"/>
	</g>
</g>
<g>
</g>
<g>
</g>
<g>
</g>
<g>
</g>
<g>
</g>
<g>
</g>
<g>
</g>
<g>
</g>
<g>
</g>
<g>
</g>
<g>
</g>
<g>
</g>
<g>
</g>
<g>
</g>
<g>
</g>
</svg>
